<svg width="843" height="614" viewBox="0 0 843 614" fill="none" xmlns="http://www.w3.org/2000/svg">
<path d="M283.549 39.8697C373.387 -23.337 753.261 -30.4485 736.791 162.246C731.128 228.533 862.665 273.843 840.234 400.054C740.891 581.741 591.623 586.298 591.623 586.298L218.451 578.702C218.451 578.702 0 495.521 0 297.602C0 99.683 193.711 103.076 283.549 39.8697Z" fill="#5680F9" fill-opacity="0.09"/>
<path d="M339.355 92.2245C478.803 195.437 728.97 132.677 712.705 283.248C707.111 335.043 796.948 385.269 774.8 483.89C761.662 538.07 549.702 586.305 549.702 586.305H174.204C174.204 586.305 17.47 526.892 17.47 372.242C17.47 217.593 199.91 -10.9884 339.355 92.2245Z" fill="#5655D2" fill-opacity="0.11"/>
<path d="M73.767 289.033C73.4515 288.363 73.4073 287.597 73.6435 286.896C73.9189 285.939 74.4075 285.056 75.0727 284.315L80.177 279.07C79.2676 276.726 78.6784 274.27 78.4254 271.768L73.0068 269.457C71.2758 268.564 69.3131 267.554 68.6429 266.393C68.4087 266.017 68.3332 265.563 68.433 265.131L71.2518 252.934C71.3715 252.575 71.5688 252.247 71.8296 251.974C72.0903 251.7 72.4081 251.487 72.7604 251.35C73.7129 250.914 74.757 250.716 75.803 250.772L84.287 251.547C86.4307 248.814 89.0647 246.504 92.0542 244.735L92.0654 237.932C92.1188 236.609 92.2959 235.294 92.5945 234.004C92.9365 232.799 93.4668 232.171 94.2587 232.033L106.584 229.86C107.189 229.794 107.796 229.97 108.271 230.349C108.92 230.824 109.458 231.434 109.848 232.138C110.044 232.478 110.212 232.834 110.351 233.202L113.035 241.574C116.013 242.292 118.855 243.491 121.447 245.124L127.356 242.984C128.617 242.583 129.913 242.299 131.227 242.139C132.478 242.049 133.249 242.332 133.652 243.03L139.91 253.869C140.066 254.213 140.146 254.588 140.141 254.965C140.137 255.343 140.05 255.716 139.885 256.056C139.486 257.025 138.858 257.882 138.055 258.555L133.685 261.941C134.463 264.979 134.725 268.127 134.458 271.252L138.941 273.646C140.496 274.628 142.257 275.741 142.917 276.883C143.057 277.099 143.148 277.342 143.183 277.597C143.218 277.851 143.196 278.11 143.12 278.355L139.252 290.258C139.101 290.605 138.876 290.914 138.592 291.164C138.308 291.414 137.973 291.598 137.61 291.703C136.624 292.055 135.567 292.161 134.53 292.014L124.766 290.254C123.765 291.109 122.705 291.894 121.595 292.603L122.283 299.246C122.368 300.567 122.329 301.893 122.166 303.207C121.952 304.442 121.491 305.122 120.715 305.343L108.685 308.793C108.341 308.859 107.987 308.853 107.646 308.774C107.305 308.694 106.984 308.544 106.705 308.332C105.913 307.79 105.257 307.072 104.79 306.234C104.72 306.112 104.648 305.988 104.587 305.859L100.419 296.4C98.4871 295.977 96.6048 295.354 94.8027 294.539L87.8294 298.232C86.6365 298.806 85.3926 299.267 84.1138 299.608C82.8876 299.872 82.0889 299.697 81.5894 299.064L73.8833 289.201C73.8408 289.147 73.8019 289.091 73.767 289.033ZM114.858 265.763C113.547 263.498 111.391 261.845 108.862 261.167C106.334 260.49 103.641 260.843 101.372 262.149C99.1072 263.461 97.4545 265.617 96.7771 268.145C96.0997 270.673 96.4528 273.367 97.759 275.635C99.0701 277.9 101.226 279.553 103.755 280.23C106.283 280.908 108.976 280.555 111.245 279.248C113.51 277.937 115.163 275.781 115.84 273.252C116.517 270.724 116.164 268.03 114.857 265.762L114.858 265.763Z" fill="#A8B4DE"/>
<path d="M119.926 325.207C119.784 324.905 119.763 324.561 119.868 324.245C119.99 323.815 120.208 323.419 120.506 323.086L122.786 320.731C122.376 319.676 122.108 318.571 121.991 317.445L119.558 316.399C118.806 316.097 118.135 315.623 117.599 315.015C117.494 314.846 117.459 314.642 117.503 314.448L118.751 308.966C118.804 308.805 118.892 308.658 119.008 308.535C119.125 308.412 119.267 308.317 119.425 308.256C119.852 308.06 120.32 307.972 120.788 307.999L124.593 308.358C125.55 307.131 126.729 306.095 128.067 305.303L128.065 302.243C128.088 301.648 128.165 301.057 128.298 300.477C128.45 299.935 128.687 299.653 129.042 299.591L134.565 298.629C134.837 298.6 135.109 298.68 135.322 298.851C135.615 299.066 135.857 299.342 136.033 299.659C136.121 299.812 136.197 299.972 136.26 300.138L137.473 303.907C138.811 304.234 140.087 304.778 141.25 305.516L143.897 304.561C144.462 304.381 145.042 304.254 145.63 304.183C146.191 304.144 146.537 304.272 146.719 304.586L149.538 309.469C149.608 309.624 149.644 309.792 149.643 309.962C149.641 310.132 149.603 310.299 149.53 310.453C149.352 310.887 149.072 311.272 148.712 311.573L146.757 313.092C147.11 314.458 147.232 315.875 147.116 317.282L149.129 318.363C149.817 318.724 150.424 319.221 150.915 319.823C150.978 319.92 151.019 320.03 151.035 320.144C151.051 320.259 151.042 320.375 151.008 320.486L149.29 325.837C149.223 325.993 149.122 326.132 148.995 326.244C148.868 326.356 148.718 326.438 148.555 326.485C148.113 326.642 147.639 326.689 147.175 326.621L142.795 325.817C142.348 326.201 141.874 326.553 141.377 326.871L141.693 329.86C141.733 330.454 141.717 331.05 141.646 331.641C141.551 332.196 141.346 332.502 140.998 332.601L135.609 334.138C135.454 334.167 135.294 334.163 135.141 334.127C134.988 334.09 134.844 334.021 134.719 333.925C134.363 333.679 134.07 333.355 133.86 332.977C133.829 332.922 133.796 332.866 133.769 332.808L131.889 328.548C131.021 328.356 130.176 328.073 129.368 327.704L126.246 329.357C125.712 329.613 125.155 329.819 124.582 329.972C124.033 330.088 123.67 330.011 123.449 329.723L119.983 325.278C119.962 325.255 119.943 325.231 119.926 325.207ZM138.322 314.793C137.737 313.774 136.771 313.029 135.637 312.721C134.502 312.413 133.292 312.568 132.272 313.151C131.256 313.743 130.517 314.714 130.217 315.85C129.916 316.986 130.078 318.196 130.668 319.212C131.254 320.231 132.22 320.977 133.354 321.284C134.488 321.592 135.698 321.437 136.719 320.854C137.735 320.262 138.474 319.291 138.774 318.154C139.075 317.017 138.912 315.807 138.321 314.791L138.322 314.793Z" fill="#2252F1"/>
<path d="M666.607 309.601C665.983 308.275 665.896 306.759 666.364 305.371C666.908 303.476 667.875 301.729 669.192 300.262L679.296 289.879C677.496 285.239 676.33 280.378 675.83 275.426L665.104 270.852C661.678 269.085 657.794 267.08 656.469 264.787C656.005 264.042 655.854 263.144 656.051 262.288L661.628 238.147C661.865 237.437 662.255 236.788 662.772 236.247C663.288 235.705 663.918 235.284 664.615 235.014C666.5 234.15 668.567 233.757 670.638 233.868L687.43 235.402C691.673 229.992 696.886 225.419 702.803 221.916L702.825 208.45C702.931 205.832 703.282 203.23 703.873 200.677C704.551 198.289 705.599 197.048 707.172 196.77L731.571 192.467C732.769 192.337 733.969 192.685 734.911 193.436C736.197 194.377 737.263 195.588 738.035 196.982C738.423 197.657 738.756 198.361 739.03 199.089L744.342 215.66C750.239 217.083 755.864 219.46 760.996 222.695L772.691 218.46C775.188 217.664 777.754 217.104 780.355 216.786C782.831 216.607 784.356 217.168 785.154 218.55L797.54 240.004C797.851 240.685 798.007 241.426 797.999 242.174C797.991 242.922 797.818 243.659 797.492 244.333C796.703 246.25 795.46 247.947 793.869 249.278L785.218 255.982C786.762 261.998 787.281 268.23 786.755 274.418L795.624 279.153C798.702 281.096 802.188 283.298 803.494 285.56C803.771 285.986 803.951 286.468 804.02 286.972C804.09 287.475 804.047 287.988 803.895 288.473L796.239 312.034C795.941 312.72 795.495 313.332 794.934 313.827C794.372 314.321 793.709 314.686 792.99 314.895C791.037 315.591 788.944 315.802 786.891 315.51L767.564 312.025C765.585 313.722 763.489 315.278 761.294 316.684L762.656 329.83C762.824 332.445 762.747 335.07 762.426 337.67C762.001 340.116 761.086 341.462 759.554 341.9L735.741 348.728C735.06 348.861 734.36 348.848 733.684 348.691C733.009 348.534 732.374 348.236 731.822 347.817C730.254 346.744 728.956 345.323 728.031 343.664C727.892 343.423 727.757 343.174 727.631 342.923L719.38 324.197C715.556 323.362 711.83 322.128 708.263 320.516L694.46 327.826C692.099 328.961 689.637 329.873 687.106 330.549C684.679 331.07 683.09 330.728 682.108 329.471L666.855 309.949C666.764 309.839 666.681 309.723 666.607 309.601ZM747.941 263.54C745.345 259.057 741.077 255.785 736.073 254.444C731.069 253.104 725.738 253.803 721.248 256.388C716.765 258.983 713.493 263.251 712.153 268.255C710.812 273.259 711.511 278.591 714.096 283.08C716.691 287.564 720.959 290.835 725.963 292.176C730.967 293.517 736.299 292.818 740.789 290.233C745.272 287.638 748.543 283.37 749.884 278.365C751.225 273.361 750.526 268.03 747.941 263.54Z" fill="#B2C2F6"/>
<path d="M608.315 221.711C607.917 220.866 607.861 219.9 608.159 219.015C608.506 217.808 609.122 216.694 609.961 215.759L616.401 209.143C615.254 206.186 614.511 203.089 614.192 199.934L607.356 197.019C605.173 195.892 602.701 194.62 601.853 193.153C601.557 192.678 601.462 192.106 601.587 191.561L605.139 176.177C605.29 175.725 605.539 175.311 605.868 174.966C606.197 174.621 606.598 174.353 607.042 174.18C608.243 173.631 609.559 173.381 610.878 173.452L621.58 174.43C624.284 170.982 627.607 168.068 631.378 165.836L631.392 157.254C631.46 155.585 631.684 153.927 632.061 152.3C632.494 150.778 633.162 149.987 634.164 149.811L649.709 147.071C650.472 146.988 651.236 147.21 651.836 147.688C652.656 148.288 653.336 149.059 653.827 149.948C654.075 150.378 654.287 150.827 654.462 151.291L657.848 161.852C661.606 162.759 665.191 164.273 668.462 166.336L675.915 163.636C677.506 163.128 679.142 162.771 680.8 162.568C682.378 162.454 683.35 162.811 683.858 163.692L691.752 177.365C691.95 177.799 692.049 178.271 692.044 178.747C692.039 179.224 691.928 179.694 691.721 180.123C691.218 181.345 690.425 182.427 689.412 183.275L683.898 187.548C684.882 191.382 685.213 195.354 684.878 199.297L690.53 202.315C692.491 203.554 694.713 204.957 695.545 206.398C695.722 206.669 695.837 206.977 695.881 207.297C695.925 207.618 695.898 207.945 695.801 208.254L690.923 223.27C690.732 223.707 690.447 224.096 690.089 224.41C689.731 224.725 689.308 224.957 688.85 225.089C687.605 225.533 686.271 225.667 684.963 225.482L672.646 223.261C671.384 224.342 670.049 225.334 668.65 226.229L669.517 234.609C669.624 236.275 669.576 237.948 669.371 239.605C669.1 241.164 668.518 242.021 667.54 242.301L652.364 246.652C651.93 246.737 651.483 246.729 651.053 246.629C650.623 246.528 650.218 246.339 649.866 246.071C648.867 245.388 648.039 244.482 647.45 243.425C647.36 243.269 647.275 243.111 647.193 242.95L641.935 231.017C639.498 230.484 637.124 229.698 634.85 228.672L626.056 233.334C624.551 234.058 622.981 234.639 621.368 235.07C619.821 235.402 618.809 235.184 618.183 234.382L608.463 221.941C608.408 221.868 608.359 221.791 608.315 221.711ZM660.15 192.356C658.495 189.499 655.776 187.414 652.587 186.56C649.397 185.705 646 186.151 643.139 187.798C640.281 189.452 638.197 192.172 637.342 195.361C636.488 198.55 636.933 201.948 638.58 204.809C640.234 207.667 642.954 209.752 646.143 210.606C649.333 211.461 652.731 211.016 655.592 209.368C658.449 207.714 660.534 204.994 661.388 201.805C662.243 198.615 661.797 195.217 660.15 192.356Z" fill="#5477E9"/>
<path d="M112.511 475.04C111.168 474.928 109.919 474.3 109.027 473.288C107.768 471.982 106.822 470.409 106.258 468.685L102.633 455.858C98.108 455.158 93.698 453.85 89.5222 451.972L80.9428 458.414C77.9584 460.332 74.5783 462.504 72.1332 462.504C71.3263 462.531 70.5415 462.238 69.9506 461.687L53.2797 446.141C52.8234 445.626 52.4864 445.016 52.2924 444.356C52.0983 443.695 52.0522 443 52.1572 442.32C52.3364 440.42 52.9739 438.593 54.0152 436.994L62.9633 424.32C60.604 418.449 59.3582 412.191 59.29 405.865L48.5702 399.653C46.5328 398.364 44.6208 396.887 42.8586 395.242C41.2684 393.602 40.7612 392.196 41.2637 390.816L49.0594 369.397C49.5063 368.384 50.3356 367.587 51.3669 367.182C52.709 366.591 54.1638 366.298 55.6304 366.325C56.3464 366.327 57.0611 366.387 57.7674 366.505L73.416 369.894C77.2631 365.85 81.7445 362.461 86.6834 359.861L88.6915 348.589C89.2058 346.233 89.9395 343.931 90.8831 341.712C91.88 339.657 93.028 338.7 94.496 338.7H117.289C117.975 338.766 118.637 338.981 119.23 339.332C119.822 339.683 120.33 340.16 120.717 340.729C121.881 342.241 122.661 344.013 122.99 345.892L124.352 355.87C129.855 357.408 135.061 359.861 139.749 363.127L147.602 358.238C150.569 356.68 153.925 354.912 156.328 354.912C156.795 354.887 157.262 354.965 157.695 355.142C158.129 355.318 158.518 355.588 158.834 355.932L174.087 372.871C174.496 373.424 174.779 374.061 174.915 374.736C175.051 375.411 175.036 376.107 174.872 376.776C174.528 378.652 173.734 380.417 172.557 381.919L160.889 395.715C161.331 398.073 161.607 400.459 161.716 402.855L172.819 407.82C174.98 408.888 177.037 410.157 178.962 411.61C180.714 413.074 181.365 414.42 181.01 415.843L175.495 437.957C175.288 438.56 174.955 439.113 174.52 439.579C174.084 440.045 173.555 440.413 172.967 440.66C171.391 441.417 169.661 441.797 167.914 441.771C167.658 441.771 167.397 441.764 167.139 441.749L148.422 439.708C145.997 442.371 143.299 444.772 140.374 446.873L139.849 461.234C139.668 463.638 139.262 466.02 138.636 468.348C137.935 470.522 136.928 471.63 135.478 471.835L112.906 475.007C112.776 475.027 112.644 475.039 112.511 475.04ZM113.226 389.042C108.46 389.047 103.89 390.943 100.519 394.314C97.149 397.684 95.2529 402.254 95.2474 407.02C95.2529 411.787 97.149 416.357 100.519 419.727C103.89 423.098 108.46 424.994 113.226 424.999C117.993 424.994 122.562 423.098 125.933 419.727C129.303 416.357 131.199 411.787 131.205 407.02C131.2 402.254 129.304 397.684 125.934 394.313C122.563 390.942 117.993 389.046 113.226 389.041V389.042Z" fill="#829CF1"/>
<path d="M422.479 537.392C435.373 537.392 445.825 526.94 445.825 514.047C445.825 501.153 435.373 490.701 422.479 490.701C409.586 490.701 399.134 501.153 399.134 514.047C399.134 526.94 409.586 537.392 422.479 537.392Z" fill="#2A2B58"/>
<path d="M422.48 558.615C425.997 558.615 428.847 555.764 428.847 552.248C428.847 548.731 425.997 545.881 422.48 545.881C418.964 545.881 416.113 548.731 416.113 552.248C416.113 555.764 418.964 558.615 422.48 558.615Z" fill="#2A2B58"/>
<path d="M648.195 217.634H195.348C178.965 217.634 165.684 230.915 165.684 247.299V483.673C165.684 500.057 178.965 513.338 195.348 513.338H648.195C664.579 513.338 677.86 500.057 677.86 483.673V247.299C677.86 230.915 664.579 217.634 648.195 217.634Z" fill="#2A2B58"/>
<path d="M644.201 224.708H199.343C185.442 224.708 174.173 235.977 174.173 249.879V481.094C174.173 494.995 185.442 506.264 199.343 506.264H644.201C658.103 506.264 669.372 494.995 669.372 481.094V249.879C669.372 235.977 658.103 224.708 644.201 224.708Z" fill="#829CF1" fill-opacity="0.18"/>
<g filter="url(#filter0_d_1_289)">
<path d="M410.751 419.984C410.751 419.984 319.017 427.02 312.192 403.938C306.454 384.505 324.178 347.461 350.78 328.578L335.776 315.949C333.565 317.044 331.043 317.338 328.64 316.782C326.236 316.226 324.1 314.854 322.594 312.9C321.088 310.946 320.306 308.531 320.381 306.065C320.456 303.599 321.383 301.235 323.005 299.376C324.627 297.517 326.843 296.278 329.276 295.869C331.709 295.46 334.208 295.907 336.348 297.134C338.489 298.36 340.138 300.291 341.015 302.597C341.892 304.903 341.942 307.441 341.158 309.78L358.058 324.004C360.809 322.488 363.67 321.181 366.617 320.093C394.994 309.68 456.679 307.914 487.696 319.443L499.092 306.296C497.913 304.145 497.516 301.653 497.967 299.243C498.418 296.833 499.689 294.653 501.566 293.074C503.442 291.495 505.807 290.615 508.259 290.583C510.711 290.551 513.099 291.369 515.016 292.898C516.933 294.427 518.261 296.572 518.775 298.97C519.289 301.368 518.957 303.869 517.835 306.05C516.714 308.231 514.871 309.955 512.622 310.931C510.372 311.907 507.854 312.073 505.495 311.403L495.46 322.981C498.58 324.627 501.326 326.9 503.526 329.658C515.266 345.047 532.721 400.115 509.697 412.94C491.799 420.635 448.072 419.983 443.148 419.983C436 419.983 415.516 434.276 414 439L410.751 419.984Z" fill="white"/>
</g>
<path d="M405.343 390.856C412.348 390.856 418.028 385.177 418.028 378.171C418.028 371.165 412.348 365.486 405.343 365.486C398.337 365.486 392.658 371.165 392.658 378.171C392.658 385.177 398.337 390.856 405.343 390.856Z" fill="#EE0033"/>
<path d="M487.794 390.856C494.8 390.856 500.479 385.177 500.479 378.171C500.479 371.165 494.8 365.486 487.794 365.486C480.788 365.486 475.109 371.165 475.109 378.171C475.109 385.177 480.788 390.856 487.794 390.856Z" fill="#EE0033"/>
<path d="M183.662 567.103H659.882C664.65 567.103 669.223 568.998 672.594 572.369C675.966 575.741 677.86 580.314 677.86 585.082V585.497H165.684V585.082C165.684 580.314 167.578 575.741 170.949 572.369C174.321 568.998 178.894 567.103 183.662 567.103V567.103Z" fill="#2A2B58"/>
<g filter="url(#filter1_d_1_289)">
<path d="M397.895 155.254C433.865 155.254 463.024 126.095 463.024 90.1254C463.024 54.1559 433.865 24.9968 397.895 24.9968C361.926 24.9968 332.767 54.1559 332.767 90.1254C332.767 126.095 361.926 155.254 397.895 155.254Z" fill="white"/>
</g>
<path d="M426.913 64.3189H357.271V115.906H426.913V64.3189Z" fill="#5477E9"/>
<path d="M429.233 64.3835V115.906H434.28V109.605H431.656V104.566H435.29V94.2281H431.656V87.6748H437.51V76.3393H431.656V72.055H437.51L438.52 64.3871L429.233 64.3835Z" fill="#5477E9"/>
<g filter="url(#filter2_d_1_289)">
<path d="M392.086 104.955C400.278 104.955 406.918 98.3148 406.918 90.1235C406.918 81.9323 400.278 75.292 392.086 75.292C383.895 75.292 377.255 81.9323 377.255 90.1235C377.255 98.3148 383.895 104.955 392.086 104.955Z" fill="white"/>
</g>
<path d="M390.693 95.447L384.256 90.4247C383.964 90.1916 383.773 89.855 383.723 89.4849C383.673 89.1148 383.767 88.7396 383.986 88.4371C384.091 88.2892 384.225 88.1642 384.38 88.0696C384.534 87.975 384.707 87.9127 384.886 87.8867C385.065 87.8606 385.248 87.8713 385.424 87.918C385.599 87.9647 385.763 88.0465 385.905 88.1585L391.101 92.2117L397.781 85.0499C397.921 84.8972 398.091 84.7745 398.28 84.6893C398.468 84.6041 398.673 84.5582 398.88 84.5544C399.087 84.5506 399.293 84.589 399.485 84.6673C399.677 84.7455 399.851 84.8619 399.996 85.0095C400.295 85.3136 400.466 85.7212 400.474 86.1479C400.481 86.5746 400.324 86.9877 400.035 87.3018L392.726 95.1333C392.627 95.2408 392.512 95.3337 392.387 95.4093C392.152 95.6106 391.855 95.7244 391.546 95.7311C391.237 95.7378 390.935 95.6371 390.692 95.4461L390.693 95.447Z" fill="#2252F1"/>
<g filter="url(#filter3_d_1_289)">
<path d="M482.081 253.238H463.923C459.87 253.238 455.983 251.628 453.117 248.762C450.251 245.896 448.641 242.009 448.641 237.956V196.605C448.641 192.552 450.251 188.665 453.117 185.799C455.983 182.933 459.87 181.323 463.923 181.323H671.577C675.63 181.323 679.516 182.933 682.382 185.799C685.248 188.665 686.858 192.552 686.858 196.605V237.956C686.858 242.009 685.248 245.896 682.382 248.762C679.516 251.628 675.63 253.238 671.577 253.238H507.251L482.081 275.059V253.238Z" fill="white"/>
</g>
<path d="M664.835 193.911H463.473C460.743 193.911 458.529 196.125 458.529 198.855C458.529 201.586 460.743 203.799 463.473 203.799H664.835C667.565 203.799 669.779 201.586 669.779 198.855C669.779 196.125 667.565 193.911 664.835 193.911Z" fill="#EE0033" fill-opacity="0.1"/>
<path d="M568.649 214.586H463.473C460.743 214.586 458.529 216.8 458.529 219.531C458.529 222.261 460.743 224.475 463.473 224.475H568.649C571.379 224.475 573.593 222.261 573.593 219.531C573.593 216.8 571.379 214.586 568.649 214.586Z" fill="#EE0033" fill-opacity="0.1"/>
<path d="M581.234 235.262H463.473C460.743 235.262 458.529 237.476 458.529 240.206C458.529 242.937 460.743 245.15 463.473 245.15H581.234C583.964 245.15 586.178 242.937 586.178 240.206C586.178 237.476 583.964 235.262 581.234 235.262Z" fill="#EE0033" fill-opacity="0.1"/>
<g filter="url(#filter4_d_1_289)">
<path d="M684.339 351.303H709.509V373.124L684.339 351.303ZM557.131 351.303C553.078 351.303 549.191 349.693 546.325 346.827C543.459 343.961 541.849 340.074 541.849 336.021V294.67C541.849 290.617 543.459 286.73 546.325 283.864C549.191 280.998 553.078 279.388 557.131 279.388H764.784C768.837 279.388 772.724 280.998 775.59 283.864C778.456 286.73 780.066 290.617 780.066 294.67V336.021C780.066 340.074 778.456 343.961 775.59 346.827C772.724 349.693 768.837 351.303 764.784 351.303H557.131Z" fill="white"/>
</g>
<path d="M758.048 291.976H556.686C553.956 291.976 551.742 294.189 551.742 296.92C551.742 299.65 553.956 301.864 556.686 301.864H758.048C760.778 301.864 762.992 299.65 762.992 296.92C762.992 294.189 760.778 291.976 758.048 291.976Z" fill="#E2EAFF"/>
<path d="M661.862 312.651H556.686C553.956 312.651 551.742 314.865 551.742 317.595C551.742 320.326 553.956 322.539 556.686 322.539H661.862C664.592 322.539 666.806 320.326 666.806 317.595C666.806 314.865 664.592 312.651 661.862 312.651Z" fill="#E2EAFF"/>
<path d="M674.447 333.327H556.686C553.956 333.327 551.742 335.54 551.742 338.271C551.742 341.001 553.956 343.215 556.686 343.215H674.447C677.177 343.215 679.391 341.001 679.391 338.271C679.391 335.54 677.177 333.327 674.447 333.327Z" fill="#E2EAFF"/>
<path d="M741.863 388.921C741.088 393.556 733.739 400.642 733.739 400.642C733.739 400.642 725.062 406.043 718.026 400.971C710.991 395.898 707.558 393.663 703.942 388.748C700.24 383.718 702.56 383.925 702.56 383.925C703.078 380.997 718.667 389.747 718.871 387.25C718.941 386.368 715.463 384.743 714.327 383.3C713.191 381.858 714.232 381.328 715.369 380.874C716.505 380.419 716.155 381.002 718.872 381.481L734.263 386.601C741.602 387.897 742.638 384.286 741.863 388.921Z" fill="#F1B7B7"/>
<path d="M790.015 601.167C793.651 599.375 793.982 599.758 798.04 597.298C801.879 594.867 805.565 592.204 809.077 589.323L815.888 583.783C815.888 583.783 833.426 577.031 834.277 580.714L837.082 592.866C837.618 595.19 837.21 597.631 835.946 599.654C834.683 601.677 832.668 603.115 830.344 603.653L798.041 610.339L790.014 610.34C785.288 610.481 781.036 605.594 790.015 601.167Z" fill="#2A2B58"/>
<path d="M684.806 585.67C694.789 584.929 708.611 581.025 708.611 581.025L717.001 578.44C717.001 578.44 735.792 578.75 735.2 582.483L733.25 594.8C732.877 597.156 731.583 599.267 729.654 600.669C727.724 602.071 725.317 602.65 722.961 602.277L684.165 597.031C679.261 596.254 674.822 586.41 684.806 585.67Z" fill="#2A2B58"/>
<path d="M767.218 384.196C767.218 384.196 788.332 392.277 794.187 401.025C800.042 409.773 803.619 427.691 802.426 432.142L768.057 510.847L735.197 581.519L717.775 578.802L740.665 493.916L767.218 384.196Z" fill="#5655D2"/>
<g filter="url(#filter5_d_1_289)">
<path d="M763.356 380.068C763.356 380.068 784.193 370.216 793.394 376.045C802.595 381.875 805.618 386.564 807.941 400.56C810.263 414.557 818.451 493.609 818.451 493.609L834.513 579.698L816.094 584.951L766.297 419.4L763.356 380.068Z" fill="#5655D2"/>
</g>
<path d="M723.539 306.592L723.615 306.532C728.702 302.558 731.863 309.842 736.589 311.143C741.314 312.444 742.518 311.739 742.518 311.739C745.576 315.654 743.931 322.049 738.846 326.022L738.77 326.082C733.919 329.871 724.362 328.775 724.218 328.591C724.612 326.184 724.83 323.751 724.871 321.312C725.104 315.945 718.452 310.566 723.539 306.592Z" fill="#FFC8C8"/>
<path d="M723.578 325.113C723.399 317.89 732.724 308.963 742.435 309.467C752.147 309.971 758.309 310.681 764.923 320.493C771.536 330.304 782.739 344.583 782.739 344.583C785.798 348.497 795.352 371.157 795.352 377.492C795.352 377.492 768.924 397.212 763.853 399.637C760.657 397.652 752.071 374.847 749.014 370.933C749.014 370.933 729.516 354.796 726.547 344.584C723.578 334.372 723.756 332.336 723.578 325.113Z" fill="#FE7062"/>
<g filter="url(#filter6_d_1_289)">
<path d="M745.354 393.062C744.598 397.674 736.224 402.277 736.224 402.277C736.224 402.277 726.481 407.35 719.471 402.324C712.46 397.299 711.258 397.882 707.646 393.007C703.95 388.016 706.257 388.215 706.257 388.215C706.763 385.302 722.291 393.955 722.486 391.471C722.571 390.362 719.107 390.309 718.378 388.562C717.556 386.595 719.567 383.105 722.274 383.574L740.338 386.298C747.64 387.565 746.11 388.451 745.354 393.062Z" fill="#FFC8C8"/>
</g>
<path d="M723.468 391.649L723.469 391.648C724.1 390.295 723.514 388.687 722.161 388.056L694.649 375.227C693.296 374.596 691.688 375.181 691.057 376.534L691.057 376.535C690.426 377.888 691.011 379.496 692.364 380.127L719.876 392.956C721.229 393.587 722.837 393.002 723.468 391.649Z" fill="black"/>
<g filter="url(#filter7_d_1_289)">
<path d="M696.285 286.928C704.989 280.588 717.362 282.747 723.92 291.75C730.478 300.753 728.738 313.192 720.034 319.532C711.33 325.872 700.159 320.45 693.601 311.447C687.043 302.444 687.58 293.268 696.285 286.928Z" fill="#FFC8C8"/>
</g>
<path d="M684.71 293.403C684.71 288.784 689.073 282.308 693.532 279.367C697.193 276.059 701.404 273.416 705.975 271.558C707.828 271.058 709.789 271.128 711.602 271.759C717.066 269.812 727.736 277.371 731.179 281.296C735.052 285.71 734.595 299.787 730.127 304.878C729.791 305.26 728.949 306.041 728.949 306.041C725.496 305.052 722.37 303.159 719.893 300.557C718.445 298.794 717.134 296.922 715.971 294.959C712.49 297.551 708.623 299.581 704.513 300.974C703.139 301.296 701.706 301.262 700.349 300.875C698.933 308.373 696.483 316.18 693.196 316.18C687.797 316.177 684.71 299.556 684.71 293.403Z" fill="#5655D2"/>
<path d="M721.412 306.388C718.305 305.727 708.453 299.743 709.81 293.36C711.167 286.977 716.027 289.412 718.927 292.669C721.828 295.926 724.286 306.999 721.412 306.388Z" fill="#FFC8C8"/>
<g filter="url(#filter8_d_1_289)">
<path d="M731.729 385.045L755.506 360.58L737.555 337.604C735.352 334.784 734.359 331.205 734.796 327.653C735.232 324.102 737.061 320.869 739.88 318.666L740.179 318.433C742.998 316.231 746.578 315.238 750.129 315.674C753.681 316.11 756.914 317.939 759.117 320.759L780.175 347.713C786.024 355.971 787.177 359.554 786.032 361.904C786.175 365.53 784.953 369.077 782.608 371.846L742.859 398.373L731.729 385.045Z" fill="#FE7062"/>
</g>
<g filter="url(#filter9_d_1_289)">
<path d="M275.692 155.258H121.076C112.636 155.258 105.794 162.1 105.794 170.54V264.029C105.794 272.469 112.636 279.311 121.076 279.311H275.692C284.132 279.311 290.974 272.469 290.974 264.029V170.54C290.974 162.1 284.132 155.258 275.692 155.258Z" fill="white"/>
</g>
<path d="M265.804 180.878C265.804 177.154 262.785 174.136 259.062 174.136C255.338 174.136 252.32 177.154 252.32 180.878V253.691C252.32 257.415 255.338 260.433 259.062 260.433C262.785 260.433 265.804 257.415 265.804 253.691V180.878Z" fill="#F0F4FF"/>
<path d="M136.358 180.878C136.358 177.154 133.339 174.136 129.615 174.136C125.892 174.136 122.873 177.154 122.873 180.878V253.691C122.873 257.415 125.892 260.433 129.615 260.433C133.339 260.433 136.358 257.415 136.358 253.691V180.878Z" fill="#F0F4FF"/>
<path d="M175.911 180.878C175.911 177.154 172.892 174.136 169.169 174.136C165.445 174.136 162.427 177.154 162.427 180.878V253.691C162.427 257.415 165.445 260.433 169.169 260.433C172.892 260.433 175.911 257.415 175.911 253.691V180.878Z" fill="#F0F4FF"/>
<path d="M220.857 180.878C220.857 177.154 217.839 174.136 214.115 174.136C210.392 174.136 207.373 177.154 207.373 180.878V253.691C207.373 257.415 210.392 260.433 214.115 260.433C217.839 260.433 220.857 257.415 220.857 253.691V180.878Z" fill="#F0F4FF"/>
<path d="M265.804 202.452C265.804 198.729 262.785 195.71 259.062 195.71C255.338 195.71 252.32 198.729 252.32 202.452V253.691C252.32 257.415 255.338 260.433 259.062 260.433C262.785 260.433 265.804 257.415 265.804 253.691V202.452Z" fill="#5477E9"/>
<path d="M136.358 234.814C136.358 231.09 133.339 228.072 129.615 228.072C125.892 228.072 122.873 231.09 122.873 234.814V253.691C122.873 257.415 125.892 260.433 129.615 260.433C133.339 260.433 136.358 257.415 136.358 253.691V234.814Z" fill="#5477E9"/>
<path d="M175.911 206.048C175.911 202.324 172.892 199.306 169.169 199.306C165.445 199.306 162.427 202.324 162.427 206.048V253.691C162.427 257.415 165.445 260.433 169.169 260.433C172.892 260.433 175.911 257.415 175.911 253.691V206.048Z" fill="#5477E9"/>
<path d="M220.857 216.835C220.857 213.111 217.839 210.093 214.115 210.093C210.392 210.093 207.373 213.111 207.373 216.835V253.691C207.373 257.415 210.392 260.433 214.115 260.433C217.839 260.433 220.857 257.415 220.857 253.691V216.835Z" fill="#5477E9"/>
<g filter="url(#filter10_d_1_289)">
<path d="M116.581 155.258H280.187C283.048 155.258 285.792 156.394 287.815 158.417C289.838 160.44 290.974 163.184 290.974 166.045H105.794C105.794 163.184 106.93 160.44 108.953 158.417C110.976 156.394 113.72 155.258 116.581 155.258V155.258Z" fill="#5477E9"/>
</g>
<path d="M193.344 551.688C242.494 551.688 282.338 511.642 282.338 462.244C282.338 412.845 242.494 372.8 193.344 372.8C144.193 372.8 104.349 412.845 104.349 462.244C104.349 511.642 144.193 551.688 193.344 551.688Z" fill="#2A2B58"/>
<path d="M193.344 544.496C238.522 544.496 275.147 507.671 275.147 462.244C275.147 416.817 238.522 379.991 193.344 379.991C148.165 379.991 111.541 416.817 111.541 462.244C111.541 507.671 148.165 544.496 193.344 544.496Z" fill="#F56685"/>
<path d="M191.369 459.269L191.444 459.268C196.461 459.18 195.016 465.181 197.341 468.199C199.665 471.217 200.742 471.343 200.742 471.343C200.81 475.207 196.797 478.404 191.78 478.492L191.704 478.493C186.923 478.576 181.502 473.424 181.499 473.243C182.869 471.933 184.143 470.525 185.309 469.031C187.965 465.807 186.351 459.357 191.369 459.269Z" fill="#FFC8C8"/>
<g filter="url(#filter11_d_1_289)">
<path d="M206.249 452.097C205.376 460.404 197.702 466.407 189.11 465.504C180.518 464.602 174.258 457.134 175.131 448.826C176.004 440.518 184.932 436.905 193.525 437.808C202.118 438.711 207.122 443.786 206.249 452.097Z" fill="#FFC8C8"/>
</g>
<path d="M171.917 442.824C171.625 434.802 180.884 424.84 187.692 424.357C187.801 424.316 187.906 424.277 188.007 424.242C189.45 423.853 190.978 423.908 192.39 424.401C196.636 422.878 204.937 428.758 207.615 431.811C210.627 435.242 210.27 446.182 206.798 450.138C206.537 450.434 205.883 451.041 205.883 451.041C205.067 448.658 203.79 446.459 202.124 444.569C201.225 443.547 199.572 441.782 197.781 439.694C192.927 443.7 182.756 447.89 179.779 448.736C179.461 448.831 179.13 448.876 178.798 448.87C178.184 450.767 177.636 452.026 177.636 452.026C177.636 452.026 172.218 451.102 171.917 442.824Z" fill="#2D2D57"/>
<path d="M176.387 441.119H170.87C170.868 438.509 171.392 435.926 172.409 433.524C173.427 431.121 174.918 428.948 176.794 427.134C180.629 423.419 185.758 421.342 191.096 421.342C196.435 421.342 201.564 423.419 205.398 427.134C207.274 428.948 208.766 431.121 209.783 433.524C210.801 435.926 211.325 438.509 211.322 441.119H205.806C205.806 439.221 205.424 437.344 204.683 435.597C203.941 433.851 202.856 432.271 201.491 430.954C198.715 428.236 194.981 426.721 191.096 426.736C187.24 426.697 183.525 428.189 180.767 430.886C178.01 433.582 176.434 437.262 176.387 441.119Z" fill="#0D0E17"/>
<g filter="url(#filter12_d_1_289)">
<path d="M191.527 473.062L191.735 473.017C193.955 472.659 194.872 469.62 198.834 469.569C203.505 471.516 211.757 474.076 212.354 477.768L207.177 516.637L179.317 517.902L170.962 481.626C170.352 477.857 178.129 473.732 183.616 470.808C183.623 470.807 184.501 470.477 184.724 470.432C187.799 469.804 189.386 473.408 191.527 473.062Z" fill="white"/>
</g>
<path d="M189.147 474.471H194.039L193.471 478.664H189.777L189.147 474.471Z" fill="#0D0E17"/>
<g filter="url(#filter13_d_1_289)">
<path d="M173.369 440.235H175.96V456.306H173.369C171.462 456.306 169.633 455.549 168.284 454.2C166.936 452.851 166.178 451.022 166.178 449.115V447.427C166.178 445.519 166.936 443.69 168.284 442.341C169.633 440.993 171.462 440.235 173.369 440.235V440.235Z" fill="#0D0E17"/>
</g>
<g filter="url(#filter14_d_1_289)">
<path d="M183.843 466.929L191.58 473.096L188.734 480.234L182.864 472.799L183.843 466.929Z" fill="white"/>
</g>
<g filter="url(#filter15_d_1_289)">
<path d="M205.309 440.235H207.899C209.807 440.235 211.636 440.993 212.984 442.341C214.333 443.69 215.091 445.519 215.091 447.427V449.115C215.091 451.022 214.333 452.851 212.984 454.2C211.636 455.549 209.807 456.306 207.899 456.306H205.309V440.235Z" fill="#0D0E17"/>
</g>
<g filter="url(#filter16_d_1_289)">
<path d="M199.104 466.929L191.591 473.085L194.213 480.234L200.082 472.799L199.104 466.929Z" fill="white"/>
</g>
<path d="M189.846 479.362H193.34V496.362L188.38 499.788L189.846 479.362Z" fill="#0B0C13"/>
<path d="M193.34 502.713L190.733 506.96L187.929 504.563L188.378 500.955L193.34 497.53V502.713Z" fill="#0B0C13"/>
<g filter="url(#filter17_d_1_289)">
<path d="M198.908 518.026L214.218 502.45L210.001 494.008C210.001 494.008 211.13 485.917 211.506 481.503C211.881 477.09 211.506 476.336 211.506 476.336L229.139 494.995C232.791 500.09 233.509 502.299 232.794 503.749C232.882 505.991 232.117 508.184 230.655 509.885L205.853 526.246L198.908 518.026Z" fill="white"/>
</g>
<g filter="url(#filter18_d_1_289)">
<path d="M173.357 482.497C173.733 486.914 174.095 495.447 174.095 495.447L170.544 503.341L185.954 519.02L179.008 527.243L154.207 510.882C152.744 509.181 151.98 506.988 152.067 504.746C151.353 503.296 152.067 501.087 155.722 495.992L172.724 477.841C172.724 477.841 172.981 478.079 173.357 482.497Z" fill="white"/>
</g>
<path d="M172.265 446.009C172.414 448.519 173.142 450.96 174.392 453.141C175.641 455.323 177.379 457.185 179.468 458.583" stroke="#0D0E17"/>
<path d="M183.164 458.147L180.485 457.118C179.67 456.805 178.756 457.213 178.443 458.028C178.13 458.843 178.537 459.758 179.352 460.071L182.031 461.099C182.846 461.412 183.761 461.005 184.074 460.189C184.387 459.374 183.98 458.46 183.164 458.147Z" fill="#0D0E17"/>
<path d="M218.514 533.709H165.477C163.987 533.709 162.78 534.916 162.78 536.406C162.78 537.895 163.987 539.103 165.477 539.103H218.514C220.003 539.103 221.211 537.895 221.211 536.406C221.211 534.916 220.003 533.709 218.514 533.709Z" fill="#2A2B58"/>
<path d="M151.646 533.026L148.621 492.656L153.496 489.232H229.608L235.087 495.076L234.033 531.558L262.481 465.676L270.31 445.796L193.999 392.579L154.277 403.449C154.277 403.449 113.188 457.87 113.188 459.884C113.188 461.898 122.97 485.205 122.97 485.809C122.97 486.413 151.646 533.026 151.646 533.026Z" fill="url(#paint0_linear_1_289)"/>
<path d="M228.402 486.964H155.588C152.113 486.964 149.296 489.782 149.296 493.257V527.416C149.296 530.892 152.113 533.709 155.588 533.709H228.402C231.877 533.709 234.695 530.892 234.695 527.416V493.257C234.695 489.782 231.877 486.964 228.402 486.964Z" fill="#2A2B58"/>
<g filter="url(#filter19_d_1_289)">
<path d="M224.701 472.977H222.268C220.599 472.977 218.998 472.314 217.818 471.134C216.638 469.954 215.975 468.353 215.975 466.685V460.506C215.975 458.837 216.638 457.237 217.818 456.057C218.998 454.877 220.599 454.214 222.268 454.214H264.847C266.516 454.214 268.116 454.877 269.296 456.057C270.476 457.237 271.139 458.837 271.139 460.506V466.684C271.139 468.352 270.476 469.953 269.296 471.133C268.116 472.313 266.516 472.976 264.847 472.976H231.268L224.701 478.67V472.977Z" fill="white"/>
</g>
<path d="M266.874 458.451H222.048C221.663 458.451 221.35 458.764 221.35 459.15V459.15C221.35 459.536 221.663 459.849 222.048 459.849H266.874C267.259 459.849 267.572 459.536 267.572 459.15V459.15C267.572 458.764 267.259 458.451 266.874 458.451Z" fill="#E2EAFF"/>
<path d="M250.672 462.67H222.048C221.663 462.67 221.35 462.983 221.35 463.368V463.369C221.35 463.755 221.663 464.068 222.048 464.068H250.672C251.058 464.068 251.371 463.755 251.371 463.369V463.368C251.371 462.983 251.058 462.67 250.672 462.67Z" fill="#E2EAFF"/>
<path d="M253.955 466.888H222.048C221.663 466.888 221.35 467.201 221.35 467.587V467.588C221.35 467.974 221.663 468.286 222.048 468.286H253.955C254.341 468.286 254.654 467.974 254.654 467.588V467.587C254.654 467.201 254.341 466.888 253.955 466.888Z" fill="#E2EAFF"/>
<g filter="url(#filter20_d_1_289)">
<path d="M165.285 419.614C166.239 419.614 167.154 419.992 167.828 420.667C168.502 421.341 168.881 422.256 168.881 423.209V427.794C168.881 428.748 168.502 429.662 167.828 430.336C167.154 431.011 166.239 431.39 165.285 431.39H150.154C149.2 431.39 148.285 431.011 147.611 430.336C146.937 429.662 146.558 428.748 146.558 427.794V423.209C146.558 422.256 146.937 421.341 147.611 420.667C148.285 419.992 149.2 419.614 150.154 419.614H165.285ZM165.124 431.39V435.046L159.179 431.39H165.124Z" fill="white"/>
</g>
<g filter="url(#filter21_d_1_289)">
<path d="M114.687 468.084C123.375 468.084 130.418 460.84 130.418 451.903C130.418 442.967 123.375 435.722 114.687 435.722C105.999 435.722 98.9556 442.967 98.9556 451.903C98.9556 460.84 105.999 468.084 114.687 468.084Z" fill="white"/>
</g>
<path d="M114.564 443.809C113.129 443.81 111.754 444.381 110.739 445.395C109.725 446.41 109.154 447.785 109.153 449.22V451.827C109.124 452.477 108.949 453.112 108.639 453.684L107.602 455.406C107.447 455.633 107.349 455.895 107.315 456.168C107.282 456.441 107.314 456.719 107.409 456.977C107.504 457.235 107.66 457.467 107.863 457.653C108.065 457.84 108.31 457.975 108.575 458.048C112.458 459.346 116.658 459.346 120.541 458.048C120.797 457.962 121.031 457.819 121.225 457.631C121.419 457.443 121.568 457.214 121.661 456.96C121.755 456.707 121.79 456.435 121.765 456.166C121.739 455.897 121.654 455.637 121.515 455.406L120.477 453.683C120.175 453.109 120.002 452.475 119.972 451.826V449.219C119.968 447.786 119.397 446.413 118.383 445.399C117.37 444.386 115.997 443.814 114.564 443.809V443.809Z" stroke="#5655D2" stroke-width="1.5" stroke-miterlimit="10" stroke-linecap="round"/>
<path d="M116.231 444.067C115.141 443.757 113.986 443.757 112.896 444.067C113.027 443.732 113.257 443.445 113.554 443.242C113.852 443.04 114.204 442.931 114.564 442.931C114.923 442.931 115.275 443.04 115.573 443.242C115.87 443.445 116.1 443.732 116.231 444.067V444.067Z" stroke="#5655D2" stroke-width="1.5" stroke-miterlimit="10" stroke-linecap="round" stroke-linejoin="round"/>
<path opacity="0.4" d="M117.27 458.372C117.27 459.09 116.985 459.778 116.477 460.285C115.97 460.792 115.282 461.078 114.564 461.078C113.847 461.078 113.159 460.792 112.651 460.285C112.144 459.778 111.859 459.09 111.859 458.372" stroke="#5554D2" stroke-width="1.5" stroke-miterlimit="10"/>
<path d="M448.5 384L457.593 394.5H439.407L448.5 384Z" fill="#EE0033"/>
<defs>
<filter id="filter0_d_1_289" x="305.111" y="287.582" width="221.869" height="160.418" filterUnits="userSpaceOnUse" color-interpolation-filters="sRGB">
<feFlood flood-opacity="0" result="BackgroundImageFix"/>
<feColorMatrix in="SourceAlpha" type="matrix" values="0 0 0 0 0 0 0 0 0 0 0 0 0 0 0 0 0 0 127 0" result="hardAlpha"/>
<feOffset dy="3"/>
<feGaussianBlur stdDeviation="3"/>
<feColorMatrix type="matrix" values="0 0 0 0 0 0 0 0 0 0 0 0 0 0 0 0 0 0 0.161 0"/>
<feBlend mode="normal" in2="BackgroundImageFix" result="effect1_dropShadow_1_289"/>
<feBlend mode="normal" in="SourceGraphic" in2="effect1_dropShadow_1_289" result="shape"/>
</filter>
<filter id="filter1_d_1_289" x="308.767" y="3.99677" width="178.257" height="178.257" filterUnits="userSpaceOnUse" color-interpolation-filters="sRGB">
<feFlood flood-opacity="0" result="BackgroundImageFix"/>
<feColorMatrix in="SourceAlpha" type="matrix" values="0 0 0 0 0 0 0 0 0 0 0 0 0 0 0 0 0 0 127 0" result="hardAlpha"/>
<feOffset dy="3"/>
<feGaussianBlur stdDeviation="12"/>
<feColorMatrix type="matrix" values="0 0 0 0 0 0 0 0 0 0 0 0 0 0 0 0 0 0 0.161 0"/>
<feBlend mode="normal" in2="BackgroundImageFix" result="effect1_dropShadow_1_289"/>
<feBlend mode="normal" in="SourceGraphic" in2="effect1_dropShadow_1_289" result="shape"/>
</filter>
<filter id="filter2_d_1_289" x="374.255" y="75.292" width="35.663" height="35.663" filterUnits="userSpaceOnUse" color-interpolation-filters="sRGB">
<feFlood flood-opacity="0" result="BackgroundImageFix"/>
<feColorMatrix in="SourceAlpha" type="matrix" values="0 0 0 0 0 0 0 0 0 0 0 0 0 0 0 0 0 0 127 0" result="hardAlpha"/>
<feOffset dy="3"/>
<feGaussianBlur stdDeviation="1.5"/>
<feColorMatrix type="matrix" values="0 0 0 0 0.933333 0 0 0 0 0 0 0 0 0 0.2 0 0 0 0.078 0"/>
<feBlend mode="normal" in2="BackgroundImageFix" result="effect1_dropShadow_1_289"/>
<feBlend mode="normal" in="SourceGraphic" in2="effect1_dropShadow_1_289" result="shape"/>
</filter>
<filter id="filter3_d_1_289" x="432.641" y="168.323" width="270.217" height="125.735" filterUnits="userSpaceOnUse" color-interpolation-filters="sRGB">
<feFlood flood-opacity="0" result="BackgroundImageFix"/>
<feColorMatrix in="SourceAlpha" type="matrix" values="0 0 0 0 0 0 0 0 0 0 0 0 0 0 0 0 0 0 127 0" result="hardAlpha"/>
<feOffset dy="3"/>
<feGaussianBlur stdDeviation="8"/>
<feColorMatrix type="matrix" values="0 0 0 0 0.337255 0 0 0 0 0.333333 0 0 0 0 0.823529 0 0 0 0.188 0"/>
<feBlend mode="normal" in2="BackgroundImageFix" result="effect1_dropShadow_1_289"/>
<feBlend mode="normal" in="SourceGraphic" in2="effect1_dropShadow_1_289" result="shape"/>
</filter>
<filter id="filter4_d_1_289" x="525.849" y="266.388" width="270.217" height="125.736" filterUnits="userSpaceOnUse" color-interpolation-filters="sRGB">
<feFlood flood-opacity="0" result="BackgroundImageFix"/>
<feColorMatrix in="SourceAlpha" type="matrix" values="0 0 0 0 0 0 0 0 0 0 0 0 0 0 0 0 0 0 127 0" result="hardAlpha"/>
<feOffset dy="3"/>
<feGaussianBlur stdDeviation="8"/>
<feColorMatrix type="matrix" values="0 0 0 0 0.337255 0 0 0 0 0.333333 0 0 0 0 0.823529 0 0 0 0.188 0"/>
<feBlend mode="normal" in2="BackgroundImageFix" result="effect1_dropShadow_1_289"/>
<feBlend mode="normal" in="SourceGraphic" in2="effect1_dropShadow_1_289" result="shape"/>
</filter>
<filter id="filter5_d_1_289" x="757.356" y="371.201" width="83.157" height="222.75" filterUnits="userSpaceOnUse" color-interpolation-filters="sRGB">
<feFlood flood-opacity="0" result="BackgroundImageFix"/>
<feColorMatrix in="SourceAlpha" type="matrix" values="0 0 0 0 0 0 0 0 0 0 0 0 0 0 0 0 0 0 127 0" result="hardAlpha"/>
<feOffset dy="3"/>
<feGaussianBlur stdDeviation="3"/>
<feColorMatrix type="matrix" values="0 0 0 0 0 0 0 0 0 0 0 0 0 0 0 0 0 0 0.161 0"/>
<feBlend mode="normal" in2="BackgroundImageFix" result="effect1_dropShadow_1_289"/>
<feBlend mode="normal" in="SourceGraphic" in2="effect1_dropShadow_1_289" result="shape"/>
</filter>
<filter id="filter6_d_1_289" x="699.546" y="377.531" width="52.4789" height="33.0147" filterUnits="userSpaceOnUse" color-interpolation-filters="sRGB">
<feFlood flood-opacity="0" result="BackgroundImageFix"/>
<feColorMatrix in="SourceAlpha" type="matrix" values="0 0 0 0 0 0 0 0 0 0 0 0 0 0 0 0 0 0 127 0" result="hardAlpha"/>
<feOffset/>
<feGaussianBlur stdDeviation="3"/>
<feColorMatrix type="matrix" values="0 0 0 0 0 0 0 0 0 0 0 0 0 0 0 0 0 0 0.161 0"/>
<feBlend mode="normal" in2="BackgroundImageFix" result="effect1_dropShadow_1_289"/>
<feBlend mode="normal" in="SourceGraphic" in2="effect1_dropShadow_1_289" result="shape"/>
</filter>
<filter id="filter7_d_1_289" x="687.156" y="282.29" width="42.7382" height="42.9938" filterUnits="userSpaceOnUse" color-interpolation-filters="sRGB">
<feFlood flood-opacity="0" result="BackgroundImageFix"/>
<feColorMatrix in="SourceAlpha" type="matrix" values="0 0 0 0 0 0 0 0 0 0 0 0 0 0 0 0 0 0 127 0" result="hardAlpha"/>
<feOffset dy="1"/>
<feGaussianBlur stdDeviation="1"/>
<feColorMatrix type="matrix" values="0 0 0 0 0 0 0 0 0 0 0 0 0 0 0 0 0 0 0.161 0"/>
<feBlend mode="normal" in2="BackgroundImageFix" result="effect1_dropShadow_1_289"/>
<feBlend mode="normal" in="SourceGraphic" in2="effect1_dropShadow_1_289" result="shape"/>
</filter>
<filter id="filter8_d_1_289" x="729.729" y="314.573" width="58.7" height="86.7993" filterUnits="userSpaceOnUse" color-interpolation-filters="sRGB">
<feFlood flood-opacity="0" result="BackgroundImageFix"/>
<feColorMatrix in="SourceAlpha" type="matrix" values="0 0 0 0 0 0 0 0 0 0 0 0 0 0 0 0 0 0 127 0" result="hardAlpha"/>
<feOffset dy="1"/>
<feGaussianBlur stdDeviation="1"/>
<feColorMatrix type="matrix" values="0 0 0 0 0 0 0 0 0 0 0 0 0 0 0 0 0 0 0.161 0"/>
<feBlend mode="normal" in2="BackgroundImageFix" result="effect1_dropShadow_1_289"/>
<feBlend mode="normal" in="SourceGraphic" in2="effect1_dropShadow_1_289" result="shape"/>
</filter>
<filter id="filter9_d_1_289" x="99.7937" y="152.258" width="197.18" height="136.053" filterUnits="userSpaceOnUse" color-interpolation-filters="sRGB">
<feFlood flood-opacity="0" result="BackgroundImageFix"/>
<feColorMatrix in="SourceAlpha" type="matrix" values="0 0 0 0 0 0 0 0 0 0 0 0 0 0 0 0 0 0 127 0" result="hardAlpha"/>
<feOffset dy="3"/>
<feGaussianBlur stdDeviation="3"/>
<feColorMatrix type="matrix" values="0 0 0 0 0.509804 0 0 0 0 0.611765 0 0 0 0 0.945098 0 0 0 0.18 0"/>
<feBlend mode="normal" in2="BackgroundImageFix" result="effect1_dropShadow_1_289"/>
<feBlend mode="normal" in="SourceGraphic" in2="effect1_dropShadow_1_289" result="shape"/>
</filter>
<filter id="filter10_d_1_289" x="99.7937" y="152.258" width="197.18" height="22.7872" filterUnits="userSpaceOnUse" color-interpolation-filters="sRGB">
<feFlood flood-opacity="0" result="BackgroundImageFix"/>
<feColorMatrix in="SourceAlpha" type="matrix" values="0 0 0 0 0 0 0 0 0 0 0 0 0 0 0 0 0 0 127 0" result="hardAlpha"/>
<feOffset dy="3"/>
<feGaussianBlur stdDeviation="3"/>
<feColorMatrix type="matrix" values="0 0 0 0 0.509804 0 0 0 0 0.611765 0 0 0 0 0.945098 0 0 0 0.18 0"/>
<feBlend mode="normal" in2="BackgroundImageFix" result="effect1_dropShadow_1_289"/>
<feBlend mode="normal" in="SourceGraphic" in2="effect1_dropShadow_1_289" result="shape"/>
</filter>
<filter id="filter11_d_1_289" x="173.05" y="436.673" width="35.297" height="31.9211" filterUnits="userSpaceOnUse" color-interpolation-filters="sRGB">
<feFlood flood-opacity="0" result="BackgroundImageFix"/>
<feColorMatrix in="SourceAlpha" type="matrix" values="0 0 0 0 0 0 0 0 0 0 0 0 0 0 0 0 0 0 127 0" result="hardAlpha"/>
<feOffset dy="1"/>
<feGaussianBlur stdDeviation="1"/>
<feColorMatrix type="matrix" values="0 0 0 0 0 0 0 0 0 0 0 0 0 0 0 0 0 0 0.161 0"/>
<feBlend mode="normal" in2="BackgroundImageFix" result="effect1_dropShadow_1_289"/>
<feBlend mode="normal" in="SourceGraphic" in2="effect1_dropShadow_1_289" result="shape"/>
</filter>
<filter id="filter12_d_1_289" x="168.928" y="468.569" width="45.4259" height="52.3333" filterUnits="userSpaceOnUse" color-interpolation-filters="sRGB">
<feFlood flood-opacity="0" result="BackgroundImageFix"/>
<feColorMatrix in="SourceAlpha" type="matrix" values="0 0 0 0 0 0 0 0 0 0 0 0 0 0 0 0 0 0 127 0" result="hardAlpha"/>
<feOffset dy="1"/>
<feGaussianBlur stdDeviation="1"/>
<feColorMatrix type="matrix" values="0 0 0 0 0 0 0 0 0 0 0 0 0 0 0 0 0 0 0.161 0"/>
<feBlend mode="normal" in2="BackgroundImageFix" result="effect1_dropShadow_1_289"/>
<feBlend mode="normal" in="SourceGraphic" in2="effect1_dropShadow_1_289" result="shape"/>
</filter>
<filter id="filter13_d_1_289" x="163.178" y="437.235" width="15.7822" height="22.0711" filterUnits="userSpaceOnUse" color-interpolation-filters="sRGB">
<feFlood flood-opacity="0" result="BackgroundImageFix"/>
<feColorMatrix in="SourceAlpha" type="matrix" values="0 0 0 0 0 0 0 0 0 0 0 0 0 0 0 0 0 0 127 0" result="hardAlpha"/>
<feOffset/>
<feGaussianBlur stdDeviation="1.5"/>
<feColorMatrix type="matrix" values="0 0 0 0 0 0 0 0 0 0 0 0 0 0 0 0 0 0 0.161 0"/>
<feBlend mode="normal" in2="BackgroundImageFix" result="effect1_dropShadow_1_289"/>
<feBlend mode="normal" in="SourceGraphic" in2="effect1_dropShadow_1_289" result="shape"/>
</filter>
<filter id="filter14_d_1_289" x="176.864" y="463.929" width="20.7161" height="25.3051" filterUnits="userSpaceOnUse" color-interpolation-filters="sRGB">
<feFlood flood-opacity="0" result="BackgroundImageFix"/>
<feColorMatrix in="SourceAlpha" type="matrix" values="0 0 0 0 0 0 0 0 0 0 0 0 0 0 0 0 0 0 127 0" result="hardAlpha"/>
<feOffset dy="3"/>
<feGaussianBlur stdDeviation="3"/>
<feColorMatrix type="matrix" values="0 0 0 0 0 0 0 0 0 0 0 0 0 0 0 0 0 0 0.161 0"/>
<feBlend mode="normal" in2="BackgroundImageFix" result="effect1_dropShadow_1_289"/>
<feBlend mode="normal" in="SourceGraphic" in2="effect1_dropShadow_1_289" result="shape"/>
</filter>
<filter id="filter15_d_1_289" x="202.309" y="437.235" width="15.7822" height="22.0711" filterUnits="userSpaceOnUse" color-interpolation-filters="sRGB">
<feFlood flood-opacity="0" result="BackgroundImageFix"/>
<feColorMatrix in="SourceAlpha" type="matrix" values="0 0 0 0 0 0 0 0 0 0 0 0 0 0 0 0 0 0 127 0" result="hardAlpha"/>
<feOffset/>
<feGaussianBlur stdDeviation="1.5"/>
<feColorMatrix type="matrix" values="0 0 0 0 0 0 0 0 0 0 0 0 0 0 0 0 0 0 0.161 0"/>
<feBlend mode="normal" in2="BackgroundImageFix" result="effect1_dropShadow_1_289"/>
<feBlend mode="normal" in="SourceGraphic" in2="effect1_dropShadow_1_289" result="shape"/>
</filter>
<filter id="filter16_d_1_289" x="185.591" y="463.929" width="20.4914" height="25.3051" filterUnits="userSpaceOnUse" color-interpolation-filters="sRGB">
<feFlood flood-opacity="0" result="BackgroundImageFix"/>
<feColorMatrix in="SourceAlpha" type="matrix" values="0 0 0 0 0 0 0 0 0 0 0 0 0 0 0 0 0 0 127 0" result="hardAlpha"/>
<feOffset dy="3"/>
<feGaussianBlur stdDeviation="3"/>
<feColorMatrix type="matrix" values="0 0 0 0 0 0 0 0 0 0 0 0 0 0 0 0 0 0 0.161 0"/>
<feBlend mode="normal" in2="BackgroundImageFix" result="effect1_dropShadow_1_289"/>
<feBlend mode="normal" in="SourceGraphic" in2="effect1_dropShadow_1_289" result="shape"/>
</filter>
<filter id="filter17_d_1_289" x="196.908" y="475.336" width="38.1339" height="53.9097" filterUnits="userSpaceOnUse" color-interpolation-filters="sRGB">
<feFlood flood-opacity="0" result="BackgroundImageFix"/>
<feColorMatrix in="SourceAlpha" type="matrix" values="0 0 0 0 0 0 0 0 0 0 0 0 0 0 0 0 0 0 127 0" result="hardAlpha"/>
<feOffset dy="1"/>
<feGaussianBlur stdDeviation="1"/>
<feColorMatrix type="matrix" values="0 0 0 0 0 0 0 0 0 0 0 0 0 0 0 0 0 0 0.161 0"/>
<feBlend mode="normal" in2="BackgroundImageFix" result="effect1_dropShadow_1_289"/>
<feBlend mode="normal" in="SourceGraphic" in2="effect1_dropShadow_1_289" result="shape"/>
</filter>
<filter id="filter18_d_1_289" x="149.819" y="476.841" width="38.1352" height="53.4018" filterUnits="userSpaceOnUse" color-interpolation-filters="sRGB">
<feFlood flood-opacity="0" result="BackgroundImageFix"/>
<feColorMatrix in="SourceAlpha" type="matrix" values="0 0 0 0 0 0 0 0 0 0 0 0 0 0 0 0 0 0 127 0" result="hardAlpha"/>
<feOffset dy="1"/>
<feGaussianBlur stdDeviation="1"/>
<feColorMatrix type="matrix" values="0 0 0 0 0 0 0 0 0 0 0 0 0 0 0 0 0 0 0.161 0"/>
<feBlend mode="normal" in2="BackgroundImageFix" result="effect1_dropShadow_1_289"/>
<feBlend mode="normal" in="SourceGraphic" in2="effect1_dropShadow_1_289" result="shape"/>
</filter>
<filter id="filter19_d_1_289" x="199.975" y="441.214" width="87.164" height="56.4564" filterUnits="userSpaceOnUse" color-interpolation-filters="sRGB">
<feFlood flood-opacity="0" result="BackgroundImageFix"/>
<feColorMatrix in="SourceAlpha" type="matrix" values="0 0 0 0 0 0 0 0 0 0 0 0 0 0 0 0 0 0 127 0" result="hardAlpha"/>
<feOffset dy="3"/>
<feGaussianBlur stdDeviation="8"/>
<feColorMatrix type="matrix" values="0 0 0 0 0.337255 0 0 0 0 0.333333 0 0 0 0 0.823529 0 0 0 0.188 0"/>
<feBlend mode="normal" in2="BackgroundImageFix" result="effect1_dropShadow_1_289"/>
<feBlend mode="normal" in="SourceGraphic" in2="effect1_dropShadow_1_289" result="shape"/>
</filter>
<filter id="filter20_d_1_289" x="130.558" y="406.614" width="54.3232" height="47.432" filterUnits="userSpaceOnUse" color-interpolation-filters="sRGB">
<feFlood flood-opacity="0" result="BackgroundImageFix"/>
<feColorMatrix in="SourceAlpha" type="matrix" values="0 0 0 0 0 0 0 0 0 0 0 0 0 0 0 0 0 0 127 0" result="hardAlpha"/>
<feOffset dy="3"/>
<feGaussianBlur stdDeviation="8"/>
<feColorMatrix type="matrix" values="0 0 0 0 0.337255 0 0 0 0 0.333333 0 0 0 0 0.823529 0 0 0 0.188 0"/>
<feBlend mode="normal" in2="BackgroundImageFix" result="effect1_dropShadow_1_289"/>
<feBlend mode="normal" in="SourceGraphic" in2="effect1_dropShadow_1_289" result="shape"/>
</filter>
<filter id="filter21_d_1_289" x="92.9556" y="432.722" width="43.4627" height="44.3616" filterUnits="userSpaceOnUse" color-interpolation-filters="sRGB">
<feFlood flood-opacity="0" result="BackgroundImageFix"/>
<feColorMatrix in="SourceAlpha" type="matrix" values="0 0 0 0 0 0 0 0 0 0 0 0 0 0 0 0 0 0 127 0" result="hardAlpha"/>
<feOffset dy="3"/>
<feGaussianBlur stdDeviation="3"/>
<feColorMatrix type="matrix" values="0 0 0 0 0 0 0 0 0 0 0 0 0 0 0 0 0 0 0.161 0"/>
<feBlend mode="normal" in2="BackgroundImageFix" result="effect1_dropShadow_1_289"/>
<feBlend mode="normal" in="SourceGraphic" in2="effect1_dropShadow_1_289" result="shape"/>
</filter>
<linearGradient id="paint0_linear_1_289" x1="187.193" y1="466.595" x2="190.836" y2="533.076" gradientUnits="userSpaceOnUse">
<stop stop-color="#FFE600" stop-opacity="0"/>
<stop offset="1" stop-color="#FFE500" stop-opacity="0.722"/>
</linearGradient>
</defs>
</svg>
